PathFileType	4	(X/Y/Z)	26_1_40_p0_0-412.trc
DataRate	CameraRate	NumFrames	NumMarkers	Units	OrigDataRate	OrigDataStartFrame	OrigNumFrames
59.0	59.0	6	27	m	59.0	309	413
Frame#	Time	RHip			RKnee			RAnkle			RBigToe			RSmallToe			RHeel			LHip			LKnee			LAnkle			LBigToe			LSmallToe			LHeel			Neck			Head			Nose			RShoulder			RElbow			RWrist			RThumb			RIndex			RPinky			LShoulder			LElbow			LWrist			LThumb			LIndex			LPinky			
		X1	Y1	Z1	X2	Y2	Z2	X3	Y3	Z3	X4	Y4	Z4	X5	Y5	Z5	X6	Y6	Z6	X7	Y7	Z7	X8	Y8	Z8	X9	Y9	Z9	X10	Y10	Z10	X11	Y11	Z11	X12	Y12	Z12	X13	Y13	Z13	X14	Y14	Z14	X15	Y15	Z15	X16	Y16	Z16	X17	Y17	Z17	X18	Y18	Z18	X19	Y19	Z19	X20	Y20	Z20	X21	Y21	Z21	X22	Y22	Z22	X23	Y23	Z23	X24	Y24	Z24	X25	Y25	Z25	X26	Y26	Z26	X27	Y27	Z27	
309	5.237288135593221	0.37231416907617765	0.8986544710630221	0.7464141984438021	0.3550367124258723	1.0752661078522523	1.1958643149536698	0.3378609853333467	1.3976278233399473	1.5876323919915127	0.2985660936524733	1.1575161606775517	1.6776128688458596	0.3653572027742741	1.25106542367014	1.6894251934525018	0.3289352750194193	1.4640185605456852	1.6265724742692271	0.14640243897516939	0.9069602871738669	0.7421907115825083	0.16361903358808452	1.1084046712277393	1.1603675044396444	0.14454642437274673	1.3289267842764478	1.576850068484835	0.09883306006591709	1.0938403422492198	1.6621856520461988	0.05926438554896707	1.1618214315358706	1.6580798768880443	0.16350005563997813	1.44871153748159	1.6146915356168197	0.25886228356764046	0.6753022758625179	0.27020286000608945	0.26238216946673437	0.47820294221483356	0.07757620517963434	0.2587563689200972	0.4859526433008386	0.2222269787379819	0.442310280507348	0.6954803496848696	0.34575633163359276	0.4932202410182168	0.7991924154536372	0.6012088817033044	0.41229147472848443	0.7928805373779123	0.851949647795346	0.31203783511052813	0.8643693642329152	0.9510884208765282	0.32403647308170663	0.8828946713083936	0.9625198020923151	0.3730273690756989	0.910991736949845	0.9727019723352702	0.10645229196182852	0.7300801346783585	0.32870765373532684	0.04122395657958386	0.8416024344089855	0.5805071709402615	0.11301463989411845	0.850505712074159	0.8170950092468096	0.19315963981808118	0.8409037744732659	0.8981798399353482	0.17308799560042698	0.8458643166169844	0.9273802086035473	0.12575737741388107	0.949144468597652	0.9254142987632278
310	5.254237288135593	0.3716714952002541	0.8953559243182886	0.7425400626280354	0.3492615780120533	1.0611212266154186	1.199581239257117	0.3379109551426826	1.398174793857435	1.5878112586836168	0.29869066169140546	1.1578841960012858	1.67761234152298	0.3654660453811277	1.2513730283903421	1.688914960154038	0.3293370908751424	1.4648669250166657	1.631341388559908	0.1496536843702395	0.917696530294194	0.7365976137527928	0.15952736046038285	1.1270395773782982	1.1604810466426292	0.14576339261811286	1.3262621717958776	1.5720567445653713	0.09854888044076816	1.0940982557593641	1.6621716757847915	0.05916358732467511	1.1616816203437712	1.6579987234257936	0.16976320930624444	1.4310005576754972	1.6177252342553632	0.2588248204315857	0.675557621080089	0.2701036525798804	0.2623758574226768	0.47820959863302764	0.07756768882481828	0.25877247036785705	0.486128024388272	0.22217639401627798	0.44230421251416935	0.6956683226357585	0.34567170665923397	0.49317443473173717	0.7991483116953554	0.6011066804234099	0.4123607673669865	0.7928088169731033	0.8519055170625633	0.31212707206776297	0.8642484868645074	0.9510110405677683	0.3240908563241286	0.8828373634615303	0.9624279544870202	0.37616923632080634	0.8949760650886266	0.9697720926065778	0.10641728329917781	0.7300055036079185	0.3286550492488091	0.041160342768535085	0.842434006931756	0.580451384961798	0.11693730495565592	0.8650612464151692	0.815667542196491	0.19313424328414822	0.8414184672038747	0.8983241185807	0.1683750620061974	0.844056948297747	0.9280538453801283	0.1263423282732324	0.9524922343352715	0.9286171413693157
311	5.271186440677966	0.37167129153431927	0.8953387728047061	0.7426449350050737	0.35424584462718495	1.07739981696144	1.1998673979769119	0.3368143317430036	1.4005210246879132	1.59265304548025	0.29883227635867915	1.1582243519700433	1.6779254273405815	0.3653847590324678	1.2513371965840385	1.6891202877340914	0.32913765550835383	1.4640502115898588	1.6308152415820831	0.14579441313458644	0.9036693563563646	0.7385679132411718	0.1587208439561831	1.1292319994730107	1.1647133829716765	0.14461077363060434	1.3281964464385165	1.5767309589469674	0.10716553431812578	1.0946143215198372	1.666806451979433	0.05777233458607456	1.1638595940243268	1.6629611049208688	0.1682954601213895	1.426169672571977	1.6119903063852818	0.2589216294756368	0.6753925150744206	0.2701267160416368	0.2622403999422274	0.475536882181803	0.07442940798803785	0.2587951303548371	0.48598513940305527	0.22216925509085908	0.44229644840688154	0.6957267943910673	0.34561491398862193	0.49293759383413016	0.7986524924873684	0.5969026781774266	0.41228301135617007	0.7926955662907527	0.8519100260712311	0.31211889326096237	0.8644330395794709	0.9510908078766953	0.3242535674947758	0.8833369886359713	0.9623478677618867	0.37303672812914584	0.9111952985838884	0.9688457571842533	0.1024524019938157	0.7312872813836238	0.332363440675634	0.041148951663879975	0.8431350294342905	0.5804524715873852	0.11694677045690241	0.8651542152395172	0.8157294888766576	0.19315930234904372	0.8413115602322886	0.8982226092677388	0.16850704189567725	0.8439259885448339	0.927796211078932	0.1264598548783473	0.9529507542889691	0.9287491111621524
312	5.288135593220339	0.37471998960991687	0.8794699715523919	0.7447691684738819	0.35486328993541183	1.0756767391342763	1.1912254167507663	0.3415101486281341	1.37505900436967	1.5840893470130768	0.2992983961795767	1.1597823435327501	1.6760538648553145	0.36084303755973324	1.2478308609767401	1.6852534968302073	0.3330908555181146	1.4762121256850438	1.622530009072108	0.14962807037480386	0.9180486008049104	0.7366635045310636	0.1594906923731798	1.12729065108504	1.1603691227030206	0.14893593667088253	1.3307290032672274	1.5770099283523158	0.11314835501648278	1.0778129233878373	1.664110912405601	0.06163329571435298	1.1768785200061553	1.6592566407522016	0.16711258659507508	1.4209877360600995	1.6056640508340458	0.25889371784547605	0.6749987990355979	0.2703278712226565	0.2663905464280918	0.4871503956705271	0.06945785382683194	0.25889577280855935	0.4859886451876112	0.22212380246106744	0.4422222694660805	0.6955496017480961	0.3456020063171438	0.49326267809821595	0.8034238963251406	0.6038828700150424	0.4123277774293378	0.7928481035886311	0.8518691713316096	0.31234347584247096	0.8647035559718224	0.9507989251652346	0.32431409807874517	0.8826210158794567	0.9624958319881471	0.37995930940484596	0.8954750603726871	0.9730010030220029	0.10231419851942196	0.731318998160329	0.3324654255344609	0.04101559660473012	0.8427525413911535	0.5805166643458717	0.11681765614367866	0.8655472779724077	0.8157140902017741	0.18960244352025457	0.8407051033033922	0.8981715932917377	0.16823539379940827	0.8445525041973542	0.9281702376793697	0.12642210826365927	0.952898005516763	0.9287716033514044
313	5.305084745762712	0.37472145622485054	0.8793916323710774	0.7447521782489841	0.3548705496669744	1.0755707213191594	1.1914021521269593	0.33784565300444724	1.3969987178624979	1.5868290239695146	0.2991900757853976	1.1594476888701217	1.676481514263231	0.3655511899587989	1.2517852314660427	1.687026706051765	0.3274552352160545	1.4589402566031124	1.6209357821611734	0.1496318393216573	0.9179548759006613	0.7365804402263333	0.15868937709592654	1.1232503350842766	1.1562066105142252	0.15010989421476575	1.328036198150454	1.5720236285926148	0.10942747452835667	1.0941796201831568	1.6616516204184142	0.06287838687176195	1.1753114055699647	1.654332946433893	0.16740897829371099	1.420861659083755	1.6056954526531326	0.2588622709875838	0.6752720955597229	0.270186278519582	0.2664134330687714	0.4870564127624741	0.06928637485901887	0.25894774663877257	0.4861142832596361	0.2219672776198247	0.4422339437275895	0.6955894885379217	0.3455921078107872	0.490457493054774	0.8157883551112629	0.5976885662204175	0.4123303869435735	0.792953368137012	0.8518833754902445	0.3123172557963753	0.8647740279593884	0.9507701739282317	0.32422634344273427	0.8829173830747759	0.9624430104709193	0.3767683499502808	0.9116361352390858	0.9720923056880825	0.10229430020221454	0.7312708499941591	0.3324987327223888	0.04098228804037115	0.8428359932790327	0.5805265545579448	0.11677584458566895	0.8655897157644828	0.8156528858508719	0.18951974703203012	0.8407033142039758	0.8981276726643891	0.16828292246757381	0.844448309271789	0.9279015206954774	0.1264732730028866	0.9524493972810972	0.9287321160477847
314	5.322033898305085	0.37181204489918135	0.895474624499784	0.7425677457852663	0.35410711273790413	1.0776364151380073	1.1950079739879889	0.3368455443569234	1.399962502935372	1.5873936265148711	0.2993737034346915	1.1595117261840777	1.6761515799862565	0.36539743424396987	1.2517086871558387	1.6825784571263414	0.327528517207649	1.4584699737302662	1.6206206342475338	0.14897489827032417	0.9138916635306581	0.7285697005165801	0.15866969816458182	1.1233090043401517	1.1562420142825138	0.15005729241552326	1.327939515553511	1.5721152087483834	0.10458187051371438	1.0756358700989268	1.6594548720807882	0.05858241460871275	1.15696865059755	1.6519886380604454	0.16752268346622137	1.4202420819206005	1.6055694397340499	0.2588837660910872	0.6752520739236588	0.27018947767725215	0.26634286082116543	0.48700610185116117	0.0692600240023973	0.25888609205958174	0.48607236243493307	0.22195211261057937	0.44220037572367654	0.6956988948609035	0.34552017354229175	0.4903423591261918	0.8162324142548664	0.5976901793337098	0.4099144260713571	0.8082115951602566	0.8504088373633765	0.31238826041464446	0.864891172137833	0.9507006825839696	0.3242917729151505	0.8832474178435304	0.962308997707242	0.3767957480008364	0.9115837579184705	0.9720235431405774	0.10231643360158127	0.7312991654943749	0.33246789944884925	0.0409017533945563	0.8429125603923798	0.5805098897998635	0.11301304636732672	0.8516179955145194	0.8172454151048287	0.18946000650893327	0.840719080003001	0.8982437216912251	0.16820473343856648	0.84445347466707	0.928107478542164	0.12655424898753662	0.9523212300678324	0.9288786222071902
